<mxfile host="app.diagrams.net" modified="2023-06-19T08:58:39.976Z" agent="Mozilla/5.0 (Windows NT 10.0; Win64; x64) AppleWebKit/537.36 (KHTML, like Gecko) Chrome/114.0.0.0 Safari/537.36" etag="f7GpxSHdTGasdW29Ys1J" version="21.4.0" type="device">
  <diagram name="Page-1" id="PL6oUSNiylBOXMCkKb9m">
    <mxGraphModel dx="3000" dy="1654" grid="1" gridSize="10" guides="1" tooltips="1" connect="1" arrows="1" fold="1" page="1" pageScale="1" pageWidth="1100" pageHeight="1700" math="0" shadow="0">
      <root>
        <mxCell id="0" />
        <mxCell id="1" parent="0" />
        <mxCell id="ynqmxDwYnANsLFQt-eow-3" value="" style="edgeStyle=orthogonalEdgeStyle;rounded=0;orthogonalLoop=1;jettySize=auto;html=1;" parent="1" edge="1">
          <mxGeometry relative="1" as="geometry">
            <mxPoint x="250" y="530" as="sourcePoint" />
          </mxGeometry>
        </mxCell>
        <mxCell id="HUR6ob20a_sKlCjAVc7S-47" value="" style="edgeStyle=orthogonalEdgeStyle;rounded=0;orthogonalLoop=1;jettySize=auto;html=1;" parent="1" edge="1">
          <mxGeometry relative="1" as="geometry">
            <mxPoint x="250" y="440" as="sourcePoint" />
          </mxGeometry>
        </mxCell>
        <mxCell id="ynqmxDwYnANsLFQt-eow-6" value="" style="edgeStyle=orthogonalEdgeStyle;rounded=0;orthogonalLoop=1;jettySize=auto;html=1;" parent="1" edge="1">
          <mxGeometry relative="1" as="geometry">
            <mxPoint x="250" y="620" as="sourcePoint" />
          </mxGeometry>
        </mxCell>
        <mxCell id="c6mbzL5RDp7EJKyADGvp-24" value="" style="edgeStyle=orthogonalEdgeStyle;rounded=0;orthogonalLoop=1;jettySize=auto;html=1;" edge="1" parent="1" source="c6mbzL5RDp7EJKyADGvp-2" target="c6mbzL5RDp7EJKyADGvp-5">
          <mxGeometry relative="1" as="geometry" />
        </mxCell>
        <mxCell id="c6mbzL5RDp7EJKyADGvp-2" value="Divide total vrobits by vrobits per drobit" style="whiteSpace=wrap;html=1;" vertex="1" parent="1">
          <mxGeometry x="70" y="530" width="120" height="60" as="geometry" />
        </mxCell>
        <mxCell id="c6mbzL5RDp7EJKyADGvp-3" value="" style="edgeStyle=orthogonalEdgeStyle;rounded=0;orthogonalLoop=1;jettySize=auto;html=1;" edge="1" parent="1" source="c6mbzL5RDp7EJKyADGvp-5" target="c6mbzL5RDp7EJKyADGvp-7">
          <mxGeometry relative="1" as="geometry" />
        </mxCell>
        <mxCell id="c6mbzL5RDp7EJKyADGvp-5" value="Divide remaining vrobits by vrobits per clickwick" style="whiteSpace=wrap;html=1;" vertex="1" parent="1">
          <mxGeometry x="70" y="630" width="120" height="60" as="geometry" />
        </mxCell>
        <mxCell id="c6mbzL5RDp7EJKyADGvp-6" value="" style="edgeStyle=orthogonalEdgeStyle;rounded=0;orthogonalLoop=1;jettySize=auto;html=1;" edge="1" parent="1" source="c6mbzL5RDp7EJKyADGvp-7" target="c6mbzL5RDp7EJKyADGvp-9">
          <mxGeometry relative="1" as="geometry" />
        </mxCell>
        <mxCell id="c6mbzL5RDp7EJKyADGvp-7" value="&lt;br&gt;&lt;span style=&quot;color: rgb(0, 0, 0); font-family: Helvetica; font-size: 12px; font-style: normal; font-variant-ligatures: normal; font-variant-caps: normal; font-weight: 400; letter-spacing: normal; orphans: 2; text-align: center; text-indent: 0px; text-transform: none; widows: 2; word-spacing: 0px; -webkit-text-stroke-width: 0px; background-color: rgb(251, 251, 251); text-decoration-thickness: initial; text-decoration-style: initial; text-decoration-color: initial; float: none; display: inline !important;&quot;&gt;Divide remaining vrobits by vrobits per gazoontight&lt;/span&gt;&lt;br&gt;" style="whiteSpace=wrap;html=1;" vertex="1" parent="1">
          <mxGeometry x="70" y="720" width="120" height="60" as="geometry" />
        </mxCell>
        <mxCell id="c6mbzL5RDp7EJKyADGvp-8" value="" style="edgeStyle=orthogonalEdgeStyle;rounded=0;orthogonalLoop=1;jettySize=auto;html=1;" edge="1" parent="1" source="c6mbzL5RDp7EJKyADGvp-9" target="c6mbzL5RDp7EJKyADGvp-10">
          <mxGeometry relative="1" as="geometry" />
        </mxCell>
        <mxCell id="c6mbzL5RDp7EJKyADGvp-9" value="Divide remaining vrobits by vrobits per frazoint" style="whiteSpace=wrap;html=1;" vertex="1" parent="1">
          <mxGeometry x="70" y="810" width="120" height="60" as="geometry" />
        </mxCell>
        <mxCell id="c6mbzL5RDp7EJKyADGvp-27" value="" style="edgeStyle=orthogonalEdgeStyle;rounded=0;orthogonalLoop=1;jettySize=auto;html=1;" edge="1" parent="1" source="c6mbzL5RDp7EJKyADGvp-10" target="c6mbzL5RDp7EJKyADGvp-26">
          <mxGeometry relative="1" as="geometry" />
        </mxCell>
        <mxCell id="c6mbzL5RDp7EJKyADGvp-10" value="Divide remaining vrobits by vrobits per blointoint" style="whiteSpace=wrap;html=1;" vertex="1" parent="1">
          <mxGeometry x="70" y="900" width="120" height="60" as="geometry" />
        </mxCell>
        <mxCell id="c6mbzL5RDp7EJKyADGvp-23" value="" style="edgeStyle=orthogonalEdgeStyle;rounded=0;orthogonalLoop=1;jettySize=auto;html=1;" edge="1" parent="1" source="c6mbzL5RDp7EJKyADGvp-14" target="c6mbzL5RDp7EJKyADGvp-2">
          <mxGeometry relative="1" as="geometry" />
        </mxCell>
        <mxCell id="c6mbzL5RDp7EJKyADGvp-14" value="Press &quot;calculate&quot; button" style="whiteSpace=wrap;html=1;" vertex="1" parent="1">
          <mxGeometry x="70" y="430" width="120" height="60" as="geometry" />
        </mxCell>
        <mxCell id="c6mbzL5RDp7EJKyADGvp-15" value="" style="edgeStyle=orthogonalEdgeStyle;rounded=0;orthogonalLoop=1;jettySize=auto;html=1;" edge="1" parent="1" source="c6mbzL5RDp7EJKyADGvp-16" target="c6mbzL5RDp7EJKyADGvp-18">
          <mxGeometry relative="1" as="geometry" />
        </mxCell>
        <mxCell id="c6mbzL5RDp7EJKyADGvp-16" value="Start" style="ellipse;whiteSpace=wrap;html=1;" vertex="1" parent="1">
          <mxGeometry x="70" y="20" width="120" height="80" as="geometry" />
        </mxCell>
        <mxCell id="c6mbzL5RDp7EJKyADGvp-17" value="" style="edgeStyle=orthogonalEdgeStyle;rounded=0;orthogonalLoop=1;jettySize=auto;html=1;" edge="1" parent="1" source="c6mbzL5RDp7EJKyADGvp-18" target="c6mbzL5RDp7EJKyADGvp-20">
          <mxGeometry relative="1" as="geometry" />
        </mxCell>
        <mxCell id="c6mbzL5RDp7EJKyADGvp-18" value="Declare and initialize constants for coin values" style="whiteSpace=wrap;html=1;" vertex="1" parent="1">
          <mxGeometry x="70" y="130" width="120" height="60" as="geometry" />
        </mxCell>
        <mxCell id="c6mbzL5RDp7EJKyADGvp-19" value="" style="edgeStyle=orthogonalEdgeStyle;rounded=0;orthogonalLoop=1;jettySize=auto;html=1;" edge="1" parent="1" source="c6mbzL5RDp7EJKyADGvp-20" target="c6mbzL5RDp7EJKyADGvp-22">
          <mxGeometry relative="1" as="geometry" />
        </mxCell>
        <mxCell id="c6mbzL5RDp7EJKyADGvp-20" value="Start GUI" style="whiteSpace=wrap;html=1;" vertex="1" parent="1">
          <mxGeometry x="70" y="230" width="120" height="60" as="geometry" />
        </mxCell>
        <mxCell id="c6mbzL5RDp7EJKyADGvp-21" value="" style="edgeStyle=orthogonalEdgeStyle;rounded=0;orthogonalLoop=1;jettySize=auto;html=1;" edge="1" parent="1" source="c6mbzL5RDp7EJKyADGvp-22" target="c6mbzL5RDp7EJKyADGvp-14">
          <mxGeometry relative="1" as="geometry" />
        </mxCell>
        <mxCell id="c6mbzL5RDp7EJKyADGvp-22" value="User types in number of Vrobits" style="shape=parallelogram;perimeter=parallelogramPerimeter;whiteSpace=wrap;html=1;fixedSize=1;" vertex="1" parent="1">
          <mxGeometry x="60" y="330" width="140" height="60" as="geometry" />
        </mxCell>
        <mxCell id="c6mbzL5RDp7EJKyADGvp-26" value="Output number of each of the six coins" style="shape=parallelogram;perimeter=parallelogramPerimeter;whiteSpace=wrap;html=1;fixedSize=1;" vertex="1" parent="1">
          <mxGeometry x="70" y="1000" width="120" height="60" as="geometry" />
        </mxCell>
      </root>
    </mxGraphModel>
  </diagram>
</mxfile>
